<svg width="25" height="24" viewBox="0 0 25 24" fill="none" xmlns="http://www.w3.org/2000/svg">
<path fill-rule="evenodd" clip-rule="evenodd" d="M6.40435 0.161893C6.40435 0.234467 7.57489 2.25092 9.00555 4.64246C10.4362 7.034 11.6068 9.08531 11.6068 9.2008C11.6068 9.4989 12.3666 9.85292 13.4276 10.0488C14.9961 10.3386 15.0679 10.4582 14.7225 12.2135L14.416 13.7719L17.2383 18.4866C19.325 21.9727 20.108 23.0847 20.2425 22.7531C20.7141 21.5911 24.6877 4.99492 24.5316 4.83911C24.3386 4.6461 22.6868 4.20416 13.5043 1.88909C10.1844 1.05202 7.22867 0.291173 6.9363 0.19831C6.64366 0.105447 6.40435 0.0890594 6.40435 0.161893ZM4.98826 1.41073C4.89877 1.74342 4.72033 2.4252 4.59209 2.92593C4.46385 3.42666 4.11347 4.77278 3.81355 5.91731C2.67813 10.2519 0.482196 19.186 0.537082 19.2482C0.591707 19.3098 4.43862 20.3051 14.338 22.8194C16.7701 23.4369 18.7894 23.915 18.8256 23.882C18.8729 23.8383 13.6778 14.9599 13.2962 14.4323C13.2687 14.3944 12.5604 14.1847 11.722 13.9662C10.8836 13.748 10.174 13.5448 10.1449 13.5149C10.1157 13.4852 10.2624 12.7923 10.4708 11.975C10.8139 10.6299 10.8087 10.4093 10.4149 9.64795C10.014 8.87253 5.39925 1.08246 5.22705 0.890489C5.18543 0.843928 5.078 1.07804 4.98826 1.41073Z" />
</svg>
